<?xml version="1.0" encoding="UTF-8" standalone="no"?>
<!-- Generator: Adobe Illustrator 22.0.1, SVG Export Plug-In . SVG Version: 6.00 Build 0)  -->

<svg
   version="1.1"
   id="Layer_1"
   x="0px"
   y="0px"
   viewBox="0 0 734.79999 848.5"
   xml:space="preserve"
   sodipodi:docname="reschola_logo.svg"
   inkscape:version="1.1.2 (b8e25be8, 2022-02-05)"
   width="734.79999"
   height="848.5"
   inkscape:export-filename="/Users/netik/Documents/git/reschola/inst/rstudio/templates/project/logo.png"
   inkscape:export-xdpi="57.928108"
   inkscape:export-ydpi="57.928108"
   xmlns:inkscape="http://www.inkscape.org/namespaces/inkscape"
   xmlns:sodipodi="http://sodipodi.sourceforge.net/DTD/sodipodi-0.dtd"
   xmlns="http://www.w3.org/2000/svg"
   xmlns:svg="http://www.w3.org/2000/svg"
   xmlns:rdf="http://www.w3.org/1999/02/22-rdf-syntax-ns#"
   xmlns:cc="http://creativecommons.org/ns#"
   xmlns:dc="http://purl.org/dc/elements/1.1/"><sodipodi:namedview
   id="namedview852"
   pagecolor="#ffffff"
   bordercolor="#666666"
   borderopacity="1.0"
   inkscape:pageshadow="2"
   inkscape:pageopacity="0.0"
   inkscape:pagecheckerboard="0"
   showgrid="false"
   inkscape:zoom="0.73254487"
   inkscape:cx="-27.984634"
   inkscape:cy="208.17838"
   inkscape:window-width="2560"
   inkscape:window-height="1387"
   inkscape:window-x="0"
   inkscape:window-y="25"
   inkscape:window-maximized="1"
   inkscape:current-layer="text19367" /><defs
   id="defs17713"><filter
     style="color-interpolation-filters:sRGB"
     id="filter23748"
     x="0"
     y="0"
     width="1"
     height="1"><feColorMatrix
       type="hueRotate"
       values="180"
       result="color1"
       id="feColorMatrix23744" /><feColorMatrix
       values="-1 0 0 0 1 0 -1 0 0 1 0 0 -1 0 1 -0.21 -0.72 -0.07 2 0 "
       result="fbSourceGraphic"
       id="feColorMatrix23746" /><feColorMatrix
       result="fbSourceGraphicAlpha"
       in="fbSourceGraphic"
       values="0 0 0 -1 0 0 0 0 -1 0 0 0 0 -1 0 0 0 0 1 0"
       id="feColorMatrix23768" /><feColorMatrix
       id="feColorMatrix23770"
       type="hueRotate"
       values="180"
       result="color1"
       in="fbSourceGraphic" /><feColorMatrix
       id="feColorMatrix23772"
       values="-1 0 0 0 1 0 -1 0 0 1 0 0 -1 0 1 -0.21 -0.72 -0.07 2 0 "
       result="fbSourceGraphic" /><feColorMatrix
       result="fbSourceGraphicAlpha"
       in="fbSourceGraphic"
       values="0 0 0 -1 0 0 0 0 -1 0 0 0 0 -1 0 0 0 0 1 0"
       id="feColorMatrix23792" /><feColorMatrix
       id="feColorMatrix23794"
       type="hueRotate"
       values="180"
       result="color1"
       in="fbSourceGraphic" /><feColorMatrix
       id="feColorMatrix23796"
       values="-1 0 0 0 1 0 -1 0 0 1 0 0 -1 0 1 -0.21 -0.72 -0.07 2 0 "
       result="fbSourceGraphic" /><feColorMatrix
       result="fbSourceGraphicAlpha"
       in="fbSourceGraphic"
       values="0 0 0 -1 0 0 0 0 -1 0 0 0 0 -1 0 0 0 0 1 0"
       id="feColorMatrix23816" /><feColorMatrix
       id="feColorMatrix23818"
       type="hueRotate"
       values="180"
       result="color1"
       in="fbSourceGraphic" /><feColorMatrix
       id="feColorMatrix23820"
       values="-1 0 0 0 1 0 -1 0 0 1 0 0 -1 0 1 -0.21 -0.72 -0.07 2 0 "
       result="fbSourceGraphic" /><feColorMatrix
       result="fbSourceGraphicAlpha"
       in="fbSourceGraphic"
       values="0 0 0 -1 0 0 0 0 -1 0 0 0 0 -1 0 0 0 0 1 0"
       id="feColorMatrix23840" /><feColorMatrix
       id="feColorMatrix23842"
       type="hueRotate"
       values="180"
       result="color1"
       in="fbSourceGraphic" /><feColorMatrix
       id="feColorMatrix23844"
       values="-1 0 0 0 1 0 -1 0 0 1 0 0 -1 0 1 -0.21 -0.72 -0.07 2 0 "
       result="color2" /></filter></defs>
<style
   type="text/css"
   id="style17302">
	.st0{fill:#141227;}
	.st1{opacity:0.94;}
	.st2{fill:#FFFFFF;}
	.st3{fill:#E6B35A;}
	.st4{opacity:0.8;fill:#F2F2F2;enable-background:new    ;}
	.st5{fill:#F7A238;}
	.st6{fill:#0088C5;}
	.st7{fill:#7FB036;}
	.st8{fill:#F9ECC6;}
	.st9{fill:#FFF34D;}
	.st10{fill:#B57AB4;}
	.st11{fill:#DB1F26;}
	.st12{fill:#F26524;}
	.st13{fill:#00A5DC;}
	.st14{fill:#164F86;}
	.st15{fill:#36A85D;}
	.st16{fill:#FFFEF9;}
	.st17{fill:#EF4782;}
	.st18{fill:#404040;}
</style>
<title
   id="title17304">tidyverse</title>

































































































































































































<g
   id="g2071"
   inkscape:export-filename="/Users/netik/Documents/git/reschola/inst/rstudio/templates/project/g2071.png"
   inkscape:export-xdpi="96"
   inkscape:export-ydpi="96"
   transform="translate(-56.85)"><path
     id="path17708-6"
     style="fill:#ffffff;fill-opacity:1;stroke:none;stroke-opacity:1"
     class="st18"
     d="M 369.94922,45.195312 C 269.58268,103.13997 169.21615,161.08464 68.849609,219.0293 c 0,136.81445 0,273.6289 0,410.44336 118.492431,68.40035 236.988611,136.7956 355.492191,205.17578 111.36227,-64.22759 222.69284,-128.51018 334.01435,-192.80836 7.09808,-4.11596 14.19616,-8.23193 21.29424,-12.34789 0,-136.82097 0,-273.64193 0,-410.46289 C 661.18359,150.63997 542.7168,82.250651 424.25,13.861328 406.14974,24.30599 388.04948,34.750651 369.94922,45.195312 Z" /><path
     class="st18"
     d="M 791.65,636.4 V 212.1 L 762.35,195.2 484.55,34.8 424.25,0 363.95,34.8 86.15,195.2 56.85,212.1 v 424.3 l 29.3,16.9 281.3,162.4 56.9,32.8 56.9,-32.8 281.3,-162.4 z M 86.15,620.5 V 230.1 L 424.25,34.8 v 0 L 762.35,230 v 390.4 l -338.1,195.3 z"
     id="path17708"
     style="fill:#323232;fill-opacity:1" /><g
     id="g23946"
     transform="matrix(3.5639548,0,0,3.5639548,-901.92593,-863.87177)"><path
       id="path4117"
       style="fill:#eb6e1f;fill-opacity:1;stroke:none;stroke-width:1"
       d="m 351.33011,290.36144 c -1.8937,0.23541 -2.79175,2.15565 -3.87379,3.48233 -3.59178,4.82573 -7.50527,9.42669 -10.74963,14.50136 -1.00528,2.19447 -0.88979,4.71348 -0.61586,7.05722 0.53164,3.4533 1.56057,6.8053 2.22991,10.23262 -0.39656,0.23952 -1.21017,0.18667 -1.76733,0.3136 -5.08698,0.65971 -10.16426,1.41617 -15.27605,1.85395 -0.97843,0.0665 -1.80459,0.78976 -1.93689,1.77205 -0.49531,3.12214 -0.78708,6.27777 -1.24363,9.40771 -0.75375,5.97196 -1.67856,11.92642 -2.21644,17.92296 -0.22478,2.92804 -0.21092,5.87612 -0.4729,8.79749 -0.68335,3.74561 -1.3667,7.49122 -2.05004,11.23684 2.64632,0.008 5.29068,-1.10845 6.97218,-3.1823 0.52349,-0.5439 0.84016,-1.34552 1.66567,-1.46954 4.90562,-1.85104 9.76794,-3.81504 14.67417,-5.66298 2.26044,-0.83342 4.94606,-1.42926 7.1469,-0.10375 2.41588,1.46876 3.90819,3.97165 5.57348,6.17622 0.80562,1.03967 1.55041,2.40768 2.92658,2.72282 1.58344,-0.02 2.78644,-1.26731 4.01509,-2.1153 24.01573,-18.23816 49.50813,-34.73909 76.95363,-47.35541 1.4098,-0.73018 3.0969,-1.09439 4.1053,-2.41941 -0.1226,-0.36339 -0.839,-0.66299 -1.2377,-0.92692 -1.8868,-0.78804 -3.8778,-1.32295 -5.8157,-1.97993 -9.3233,-2.97119 -18.7337,-5.72727 -27.7874,-9.47013 -16.1332,-6.37428 -32.082,-13.1971 -48.02033,-20.03954 -0.63653,-0.26513 -1.57397,-0.62996 -2.38462,-0.72386 -0.26906,-0.0419 -0.54323,-0.0433 -0.8146,-0.0281 z" /><path
       d="m 436.21696,320.45574 c -9.91,-3.36 -20.05,-6.09 -29.77,-9.9 -17.18,-6.73 -34.17,-13.98 -51.13003,-21.27 -3.64,-1.56 -6.04,-1.3 -8.37,1.89 -3.85,5.29 -8.14,10.28 -11.72,15.74 -1.25,1.89 -1.43,4.82 -1.28,7.22 0.2,3.17 1.21,6.28 1.97,9.88 -5.1,0.64 -9.6,1.37 -14.13,1.71 -3.05,0.23 -4.26,1.64 -4.6,4.55 -0.94,7.96 -2.13,15.89 -3.06,23.86 -0.42,3.65 -0.44,7.34 -0.65,11.01 -0.81,4.44 -1.62,8.89 -2.5,13.71 5.64,0.54 8.96,-1.2 11.55,-4.63 3.6,-1.39 7.22,-2.76 10.81,-4.18 8.97,-3.57 9.08,-3.66 14.87,4.43 2.62,3.66 4.9,3.79 8.42,1.11 25.05003,-19.07 51.36003,-36.12 80.18003,-49.04 1.43,-0.64 2.43,-2.22 3.64,-3.36 -1.42,-0.95 -2.7,-2.22 -4.23,-2.73 z m -95.17003,-14.78 c 3.3,-4.25 5.92,-10.81 10.12,-12.06 3.97,-1.18 9.61003,3.21 14.51003,5.16 12.14,4.83 24.27,9.67 36.41,14.5 2.53,1.01 5.07,1.98 7.34,4.14 -22.92,-3.45 -45.84,-6.9 -69.08003,-10.4 0.25,-0.5 0.41,-0.97 0.7,-1.34 z m 54.58003,13.99 c -0.03,0.27 -0.05,0.55 -0.08,0.83 -11.37,0.43 -22.75,0.83 -34.12,1.31 -4.89003,0.21 -9.78003,0.56 -14.66003,0.91 -6.85,0.48 -6.97,0.43 -8.2,-6.37 -0.2,-1.1 -0.13,-2.24 -0.27,-4.95 19.67,2.84 38.50003,5.55 57.33003,8.27 z m -43.43003,53.05 c -1.89,-2.84 -3.58,-5.37 -5.73,-8.6 16.49003,-7.48 32.45003,-14.71 48.41003,-21.95 0.19,0.39 0.38,0.77 0.57,1.15 -14.25,9.69 -28.5,19.37 -43.25003,29.4 z m 40.75003,-34.06 c -19.55,8.74 -39.06003,17.58 -58.54003,26.5 -4.68,2.14 -9.16,4.72 -13.73,7.1 -1.47,0.49 -2.93,0.98 -4.46,1.49 -0.23,-2.19 -0.46,-4.31 -0.69,-6.44 1.31,-7.82 2.66,-15.64 3.92,-23.47 0.73,-4.5 1.32,-9.02 2.02,-13.94 33.58,-4.75 67.14003,-4.94 100.98003,-3.9 -9.83,4.21 -19.73,8.29 -29.5,12.66 z"
       id="path4119"
       style="fill:#323232;fill-opacity:1" /></g><g
     aria-label="reschola"
     id="text18135"
     style="font-weight:500;font-size:120px;line-height:1.25;font-family:Ubuntu;-inkscape-font-specification:'Ubuntu, Medium';fill:#323232"><path
       d="m 234.11563,566.08624 q -1.8,-0.6 -5.04,-1.2 -3.12,-0.72 -7.32,-0.72 -2.4,0 -5.16,0.48 -2.64,0.48 -3.72,0.84 v 50.28 h -14.52 v -59.76 q 4.2,-1.56 10.44,-2.88 6.36,-1.44 14.04,-1.44 1.44,0 3.36,0.24 1.92,0.12 3.84,0.48 1.92,0.24 3.72,0.72 1.8,0.36 2.88,0.72 z"
       id="path2104" /><path
       d="m 243.15688,584.68624 q 0,-8.28 2.4,-14.52 2.52,-6.24 6.6,-10.32 4.08,-4.2 9.36,-6.24 5.28,-2.16 10.8,-2.16 12.96,0 20.16,8.04 7.32,8.04 7.32,24 0,1.2 -0.12,2.76 0,1.44 -0.12,2.64 h -41.4 q 0.6,7.56 5.28,11.76 4.8,4.08 13.8,4.08 5.28,0 9.6,-0.96 4.44,-0.96 6.96,-2.04 l 1.92,11.88 q -1.2,0.6 -3.36,1.32 -2.04,0.6 -4.8,1.08 -2.64,0.6 -5.76,0.96 -3.12,0.36 -6.36,0.36 -8.28,0 -14.4,-2.4 -6.12,-2.52 -10.08,-6.84 -3.96,-4.44 -5.88,-10.32 -1.92,-6 -1.92,-13.08 z m 42.12,-6.48 q 0,-3 -0.84,-5.64 -0.84,-2.76 -2.52,-4.68 -1.56,-2.04 -3.96,-3.12 -2.28,-1.2 -5.52,-1.2 -3.36,0 -5.88,1.32 -2.52,1.2 -4.32,3.24 -1.68,2.04 -2.64,4.68 -0.96,2.64 -1.32,5.4 z"
       id="path2106" /><path
       d="m 330.79438,605.32624 q 5.76,0 8.4,-1.32 2.64,-1.44 2.64,-4.8 0,-3.12 -2.88,-5.16 -2.76,-2.04 -9.24,-4.44 -3.96,-1.44 -7.32,-3 -3.24,-1.68 -5.64,-3.84 -2.4,-2.16 -3.84,-5.16 -1.32,-3.12 -1.32,-7.56 0,-8.64 6.36,-13.56 6.36,-5.04 17.28,-5.04 5.52,0 10.56,1.08 5.04,0.96 7.56,1.92 l -2.64,11.76 q -2.4,-1.08 -6.12,-1.92 -3.72,-0.96 -8.64,-0.96 -4.44,0 -7.2,1.56 -2.76,1.44 -2.76,4.56 0,1.56 0.48,2.76 0.6,1.2 1.92,2.28 1.32,0.96 3.48,2.04 2.16,0.96 5.28,2.04 5.16,1.92 8.76,3.84 3.6,1.8 5.88,4.2 2.4,2.28 3.48,5.28 1.08,3 1.08,7.2 0,9 -6.72,13.68 -6.6,4.56 -18.96,4.56 -8.28,0 -13.32,-1.44 -5.04,-1.32 -7.08,-2.16 l 2.52,-12.12 q 3.24,1.32 7.68,2.52 4.56,1.2 10.32,1.2 z"
       id="path2108" /><path
       d="m 366.43813,584.44624 q 0,-6.96 2.16,-12.96 2.16,-6.12 6.12,-10.56 4.08,-4.44 9.84,-6.96 5.76,-2.52 12.96,-2.52 8.88,0 16.8,3.24 l -3.12,11.88 q -2.52,-1.08 -5.76,-1.8 -3.12,-0.72 -6.72,-0.72 -8.52,0 -12.96,5.4 -4.44,5.28 -4.44,15 0,9.36 4.2,14.88 4.2,5.4 14.16,5.4 3.72,0 7.32,-0.72 3.6,-0.72 6.24,-1.8 l 2.04,12 q -2.4,1.2 -7.32,2.16 -4.8,0.96 -9.96,0.96 -8.04,0 -14.04,-2.4 -5.88,-2.52 -9.84,-6.84 -3.84,-4.44 -5.76,-10.44 -1.92,-6.12 -1.92,-13.2 z"
       id="path2110" /><path
       d="m 426.63688,615.76624 v -90.72 l 14.52,-2.4 v 31.08 q 2.4,-0.84 5.52,-1.44 3.24,-0.6 6.36,-0.6 7.56,0 12.48,2.16 5.04,2.04 8.04,5.88 3,3.72 4.2,9 1.32,5.28 1.32,11.76 v 35.28 h -14.52 v -33 q 0,-5.04 -0.72,-8.52 -0.6,-3.6 -2.16,-5.76 -1.44,-2.28 -3.96,-3.24 -2.52,-1.08 -6.24,-1.08 -2.88,0 -5.88,0.6 -3,0.6 -4.44,1.08 v 49.92 z"
       id="path2112" /><path
       d="m 553.24063,584.32624 q 0,7.44 -2.16,13.56 -2.16,6.12 -6.12,10.44 -3.96,4.32 -9.6,6.72 -5.52,2.4 -12.24,2.4 -6.72,0 -12.24,-2.4 -5.52,-2.4 -9.48,-6.72 -3.96,-4.32 -6.24,-10.44 -2.16,-6.12 -2.16,-13.56 0,-7.44 2.16,-13.44 2.28,-6.12 6.24,-10.44 4.08,-4.32 9.6,-6.6 5.52,-2.4 12.12,-2.4 6.6,0 12.12,2.4 5.64,2.28 9.6,6.6 3.96,4.32 6.12,10.44 2.28,6 2.28,13.44 z m -14.88,0 q 0,-9.36 -4.08,-14.76 -3.96,-5.52 -11.16,-5.52 -7.2,0 -11.28,5.52 -3.96,5.4 -3.96,14.76 0,9.48 3.96,15 4.08,5.52 11.28,5.52 7.2,0 11.16,-5.52 4.08,-5.52 4.08,-15 z"
       id="path2114" /><path
       d="m 590.03938,616.96624 q -6.48,-0.12 -10.8,-1.44 -4.2,-1.32 -6.72,-3.72 -2.52,-2.52 -3.6,-6.12 -0.96,-3.72 -0.96,-8.4 v -72.24 l 14.52,-2.4 v 71.88 q 0,2.64 0.36,4.44 0.48,1.8 1.56,3.12 1.08,1.2 2.88,1.92 1.92,0.6 4.8,0.96 z"
       id="path2116" /><path
       d="m 625.90438,605.56624 q 6.72,0 10.2,-0.72 v -16.08 q -1.2,-0.36 -3.48,-0.72 -2.28,-0.36 -5.04,-0.36 -2.4,0 -4.92,0.36 -2.4,0.36 -4.44,1.32 -1.92,0.96 -3.12,2.76 -1.2,1.68 -1.2,4.32 0,5.16 3.24,7.2 3.24,1.92 8.76,1.92 z m -1.2,-54.12 q 7.2,0 12.12,1.8 4.92,1.8 7.8,5.04 3,3.24 4.2,7.92 1.32,4.56 1.32,10.08 v 38.04 q -3.36,0.72 -10.2,1.68 -6.72,1.08 -15.24,1.08 -5.64,0 -10.32,-1.08 -4.68,-1.08 -8.04,-3.48 -3.24,-2.4 -5.16,-6.24 -1.8,-3.84 -1.8,-9.48 0,-5.4 2.04,-9.12 2.16,-3.72 5.76,-6 3.6,-2.4 8.28,-3.36 4.8,-1.08 9.96,-1.08 2.4,0 5.04,0.36 2.64,0.24 5.64,0.96 v -2.4 q 0,-2.52 -0.6,-4.8 -0.6,-2.28 -2.16,-3.96 -1.44,-1.8 -3.96,-2.76 -2.4,-0.96 -6.12,-0.96 -5.04,0 -9.24,0.72 -4.2,0.72 -6.84,1.68 l -1.8,-11.76 q 2.76,-0.96 8.04,-1.92 5.28,-0.96 11.28,-0.96 z"
       id="path2118" /></g><g
     aria-label="scholaempirica.org"
     transform="rotate(-30)"
     id="text19367"
     style="font-size:26.6667px;line-height:1.25;font-family:Ubuntu;-inkscape-font-specification:'Ubuntu, Normal';fill:#808080"><path
       d="m -31.087945,906.98646 q 1.520001,0 2.240002,-0.4 0.746668,-0.4 0.746668,-1.28 0,-0.90667 -0.720001,-1.44 -0.720001,-0.53333 -2.373336,-1.2 -0.800001,-0.32 -1.546669,-0.64 -0.720001,-0.34667 -1.253335,-0.8 -0.533334,-0.45334 -0.853334,-1.09334 -0.320001,-0.64 -0.320001,-1.57333 0,-1.84001 1.360002,-2.90667 1.360002,-1.09334 3.706671,-1.09334 0.586668,0 1.173335,0.08 0.586668,0.0533 1.093335,0.16 0.506667,0.08 0.880001,0.18667 0.400001,0.10667 0.613334,0.18667 l -0.453334,2.13333 q -0.4,-0.21333 -1.253335,-0.42667 -0.853334,-0.24 -2.053336,-0.24 -1.040001,0 -1.813335,0.42667 -0.773335,0.4 -0.773335,1.28 0,0.45334 0.160001,0.8 0.186667,0.34667 0.533334,0.64 0.373333,0.26667 0.906668,0.50667 0.533334,0.24 1.280001,0.50667 0.986668,0.37333 1.760002,0.74667 0.773335,0.34666 1.306669,0.82666 0.56,0.48 0.853334,1.17334 0.293334,0.66667 0.293334,1.65333 0,1.92001 -1.440002,2.90667 -1.413335,0.98667 -4.053338,0.98667 -1.840003,0 -2.880004,-0.32 -1.040001,-0.29333 -1.413335,-0.45333 l 0.453334,-2.13334 q 0.426667,0.16 1.360001,0.48 0.933335,0.32 2.480004,0.32 z"
       id="path2293" /><path
       d="m -16.412927,909.09313 q -1.680002,0 -2.960003,-0.53333 -1.253335,-0.53334 -2.133336,-1.49334 -0.853335,-0.96 -1.280002,-2.26667 -0.426667,-1.33333 -0.426667,-2.93333 0,-1.60001 0.453334,-2.93334 0.48,-1.33334 1.333335,-2.29334 0.853334,-0.98666 2.080002,-1.52 1.253335,-0.56 2.773337,-0.56 0.933335,0 1.866669,0.16 0.933335,0.16 1.786669,0.50667 l -0.560001,2.10667 q -0.56,-0.26667 -1.306668,-0.42667 -0.720001,-0.16 -1.546669,-0.16 -2.080002,0 -3.200004,1.30667 -1.093334,1.30667 -1.093334,3.81334 0,1.12 0.24,2.05333 0.266667,0.93334 0.800001,1.6 0.560001,0.66667 1.413335,1.04001 0.853334,0.34666 2.080003,0.34666 0.986668,0 1.786669,-0.18666 0.800001,-0.18667 1.253335,-0.4 l 0.346667,2.08 q -0.213334,0.13333 -0.613334,0.26667 -0.400001,0.10666 -0.906668,0.18666 -0.506668,0.10667 -1.093335,0.16 -0.560001,0.08 -1.093335,0.08 z"
       id="path2295" /><path
       d="m -10.043752,908.77313 v -20.26669 l 2.4800034,-0.42667 v 7.09335 q 0.6933342,-0.26667 1.4666685,-0.40001 0.800001,-0.16 1.5733353,-0.16 1.6533354,0 2.7466702,0.48001 1.09333467,0.45333 1.73333548,1.30666 0.66666751,0.82667 0.93333451,2.00001 0.26666701,1.17333 0.26666701,2.58667 v 7.78667 h -2.4800031 v -7.25334 q 0,-1.28 -0.1866669,-2.18667 -0.1600002,-0.90667 -0.5600007,-1.46667 -0.4000006,-0.56 -1.0666681,-0.8 -0.6666675,-0.26667 -1.6533354,-0.26667 -0.4000005,0 -0.8266677,0.0533 -0.4266672,0.0533 -0.8266677,0.13333 -0.3733338,0.0533 -0.6933342,0.13333 -0.2933337,0.08 -0.4266672,0.13334 v 11.52001 z"
       id="path2297" /><path
       d="m 17.404617,901.83979 q 0,1.65334 -0.480001,2.98667 -0.48,1.33334 -1.360002,2.29334 -0.853334,0.96 -2.053335,1.49333 -1.200002,0.50667 -2.613337,0.50667 -1.4133353,0 -2.6133368,-0.50667 -1.2000015,-0.53333 -2.0800026,-1.49333 -0.8533344,-0.96 -1.333335,-2.29334 -0.4800006,-1.33333 -0.4800006,-2.98667 0,-1.62667 0.4800006,-2.96 0.4800006,-1.36001 1.333335,-2.32001 0.8800011,-0.96 2.0800026,-1.46666 1.2000015,-0.53334 2.6133368,-0.53334 1.413335,0 2.613337,0.53334 1.200001,0.50666 2.053335,1.46666 0.880002,0.96 1.360002,2.32001 0.480001,1.33333 0.480001,2.96 z m -2.58667,0 q 0,-2.34667 -1.066668,-3.70667 -1.040002,-1.38667 -2.853337,-1.38667 -1.8133358,0 -2.8800038,1.38667 -1.0400013,1.36 -1.0400013,3.70667 0,2.34667 1.0400013,3.73334 1.066668,1.36 2.8800038,1.36 1.813335,0 2.853337,-1.36 1.066668,-1.38667 1.066668,-3.73334 z"
       id="path2299" /><path
       d="m 25.053794,909.0398 q -2.293337,-0.0533 -3.253338,-0.98667 -0.960001,-0.93333 -0.960001,-2.90667 v -16.64002 l 2.480003,-0.42667 v 16.66669 q 0,0.61333 0.106667,1.01334 0.106667,0.4 0.346667,0.64 0.24,0.24 0.640001,0.37333 0.4,0.10667 0.986668,0.18667 z"
       id="path2301" /><path
       d="m 32.878803,906.98646 q 0.880001,0 1.546669,-0.0267 0.693334,-0.0533 1.146668,-0.16 v -4.13334 q -0.266667,-0.13334 -0.880001,-0.21334 -0.586668,-0.10666 -1.440002,-0.10666 -0.560001,0 -1.200002,0.08 -0.613334,0.08 -1.146668,0.34666 -0.506667,0.24001 -0.853334,0.69334 -0.346667,0.42667 -0.346667,1.14667 0,1.33333 0.853334,1.86667 0.853335,0.50666 2.320003,0.50666 z M 32.66547,894.55978 q 1.493335,0 2.506669,0.4 1.040002,0.37334 1.653336,1.09334 0.640001,0.69333 0.906668,1.68 0.266667,0.96 0.266667,2.13333 v 8.66668 q -0.320001,0.0533 -0.906668,0.16 -0.560001,0.08 -1.280002,0.16 -0.720001,0.08 -1.573335,0.13334 -0.826668,0.08 -1.653336,0.08 -1.173334,0 -2.160002,-0.24 -0.986668,-0.24 -1.706669,-0.74667 -0.720001,-0.53334 -1.120002,-1.38667 -0.4,-0.85333 -0.4,-2.05334 0,-1.14666 0.453334,-1.97333 0.48,-0.82667 1.280001,-1.33334 0.800001,-0.50666 1.86667,-0.74666 1.066668,-0.24 2.240002,-0.24 0.373334,0 0.773335,0.0533 0.4,0.0267 0.746667,0.10667 0.373334,0.0533 0.640001,0.10666 0.266667,0.0533 0.373334,0.08 v -0.69333 q 0,-0.61334 -0.133334,-1.2 -0.133333,-0.61334 -0.48,-1.06667 -0.346667,-0.48 -0.960001,-0.74667 -0.586668,-0.29333 -1.546669,-0.29333 -1.226668,0 -2.160003,0.18666 -0.906668,0.16 -1.360002,0.34667 l -0.293333,-2.05333 q 0.48,-0.21334 1.600002,-0.40001 1.120001,-0.21333 2.42667,-0.21333 z"
       id="path2303" /><path
       d="m 41.318399,901.86646 q 0,-1.84001 0.533334,-3.20001 0.533334,-1.38667 1.413335,-2.29333 0.880001,-0.90667 2.026669,-1.36001 1.146668,-0.45333 2.34667,-0.45333 2.800003,0 4.293338,1.76 1.493336,1.73334 1.493336,5.30668 0,0.16 0,0.42666 0,0.24 -0.02667,0.45334 h -9.493345 q 0.16,2.16 1.253334,3.28 1.093335,1.12 3.413338,1.12 1.306668,0 2.18667,-0.21333 0.906667,-0.24 1.360001,-0.45333 l 0.346667,2.08 q -0.453334,0.24 -1.600002,0.50667 -1.120001,0.26666 -2.560003,0.26666 -1.813335,0 -3.146671,-0.53333 -1.306668,-0.56 -2.160002,-1.52 -0.853335,-0.96 -1.280002,-2.26667 -0.4,-1.33334 -0.4,-2.90667 z m 9.520012,-1.36 q 0.02667,-1.68001 -0.853335,-2.74667 -0.853334,-1.09334 -2.373336,-1.09334 -0.853334,0 -1.520002,0.34667 -0.640001,0.32 -1.093335,0.85333 -0.453334,0.53334 -0.720001,1.22667 -0.24,0.69333 -0.32,1.41334 z"
       id="path2305" /><path
       d="m 56.987584,895.30645 q 0.853334,-0.21333 2.240003,-0.45334 1.413335,-0.24 3.253337,-0.24 1.333335,0 2.240003,0.37334 0.906668,0.34667 1.520002,1.04 0.186667,-0.13333 0.586668,-0.37333 0.4,-0.24 0.986667,-0.45334 0.586668,-0.24 1.306669,-0.4 0.720001,-0.18667 1.546668,-0.18667 1.600002,0 2.613337,0.48001 1.013335,0.45333 1.573335,1.30666 0.586668,0.85334 0.773335,2.02667 0.213333,1.17334 0.213333,2.56001 v 7.78667 h -2.480003 v -7.25334 q 0,-1.22667 -0.133333,-2.10667 -0.106667,-0.88 -0.453334,-1.46667 -0.320001,-0.58667 -0.906668,-0.85333 -0.560001,-0.29334 -1.466669,-0.29334 -1.253335,0 -2.080002,0.34667 -0.800001,0.32 -1.093335,0.58667 0.213334,0.69333 0.32,1.52 0.106667,0.82667 0.106667,1.73334 v 7.78667 h -2.480003 v -7.25334 q 0,-1.22667 -0.133333,-2.10667 -0.133334,-0.88 -0.480001,-1.46667 -0.32,-0.58667 -0.906668,-0.85333 -0.560001,-0.29334 -1.440002,-0.29334 -0.373333,0 -0.800001,0.0267 -0.426667,0.0267 -0.826667,0.08 -0.373334,0.0267 -0.693335,0.08 -0.32,0.0533 -0.426667,0.08 v 11.70668 h -2.480003 z"
       id="path2307" /><path
       d="m 89.583043,901.86646 q 0,-2.42667 -1.200001,-3.73334 -1.200002,-1.30667 -3.200004,-1.30667 -1.120002,0 -1.760002,0.08 -0.613334,0.08 -0.986668,0.18667 v 8.74668 q 0.453334,0.37333 1.306668,0.72 0.853334,0.34666 1.866669,0.34666 1.066668,0 1.813336,-0.37333 0.773334,-0.4 1.253335,-1.06667 0.48,-0.69333 0.693334,-1.6 0.213333,-0.93334 0.213333,-2 z m 2.58667,0 q 0,1.57333 -0.426667,2.90667 -0.4,1.33333 -1.200001,2.29333 -0.800001,0.96 -1.973336,1.49334 -1.146668,0.53333 -2.640004,0.53333 -1.200001,0 -2.133336,-0.32 -0.906667,-0.32 -1.360001,-0.61333 v 5.54667 h -2.480003 v -18.37335 q 0.880001,-0.21334 2.186669,-0.45334 1.333335,-0.26667 3.066671,-0.26667 1.600002,0 2.880003,0.50667 1.280002,0.50667 2.18667,1.44 0.906667,0.93334 1.386668,2.29334 0.506667,1.33333 0.506667,3.01334 z"
       id="path2309" /><path
       d="m 98.165555,908.77313 h -2.480003 v -13.86668 h 2.480003 z M 96.91222,892.39978 q -0.666668,0 -1.146668,-0.42667 -0.453334,-0.45333 -0.453334,-1.2 0,-0.74667 0.453334,-1.17334 0.48,-0.45333 1.146668,-0.45333 0.666667,0 1.120001,0.45333 0.480001,0.42667 0.480001,1.17334 0,0.74667 -0.480001,1.2 -0.453334,0.42667 -1.120001,0.42667 z"
       id="path2311" /><path
       d="m 107.5764,894.61311 q 0.32,0 0.72,0.0533 0.42667,0.0267 0.82667,0.10666 0.4,0.0533 0.72,0.13334 0.34667,0.0533 0.50667,0.10666 l -0.42667,2.16001 q -0.29333,-0.10667 -0.98667,-0.24 -0.66666,-0.16 -1.73333,-0.16 -0.69334,0 -1.38667,0.16 -0.66667,0.13333 -0.88,0.18666 v 11.65335 h -2.48 v -13.28001 q 0.88,-0.32 2.18666,-0.58667 1.30667,-0.29334 2.93334,-0.29334 z"
       id="path2313" /><path
       d="m 115.24891,908.77313 h -2.48 v -13.86668 h 2.48 z m -1.25333,-16.37335 q -0.66667,0 -1.14667,-0.42667 -0.45333,-0.45333 -0.45333,-1.2 0,-0.74667 0.45333,-1.17334 0.48,-0.45333 1.14667,-0.45333 0.66667,0 1.12,0.45333 0.48,0.42667 0.48,1.17334 0,0.74667 -0.48,1.2 -0.45333,0.42667 -1.12,0.42667 z"
       id="path2315" /><path
       d="m 125.56641,909.09313 q -1.68,0 -2.96,-0.53333 -1.25334,-0.53334 -2.13334,-1.49334 -0.85333,-0.96 -1.28,-2.26667 -0.42667,-1.33333 -0.42667,-2.93333 0,-1.60001 0.45334,-2.93334 0.48,-1.33334 1.33333,-2.29334 0.85334,-0.98666 2.08001,-1.52 1.25333,-0.56 2.77333,-0.56 0.93334,0 1.86667,0.16 0.93334,0.16 1.78667,0.50667 l -0.56,2.10667 q -0.56,-0.26667 -1.30667,-0.42667 -0.72,-0.16 -1.54667,-0.16 -2.08,0 -3.2,1.30667 -1.09334,1.30667 -1.09334,3.81334 0,1.12 0.24,2.05333 0.26667,0.93334 0.80001,1.6 0.56,0.66667 1.41333,1.04001 0.85334,0.34666 2.08,0.34666 0.98667,0 1.78667,-0.18666 0.8,-0.18667 1.25334,-0.4 l 0.34666,2.08 q -0.21333,0.13333 -0.61333,0.26667 -0.4,0.10666 -0.90667,0.18666 -0.50666,0.10667 -1.09333,0.16 -0.56,0.08 -1.09334,0.08 z"
       id="path2317" /><path
       d="m 136.62894,906.98646 q 0.88,0 1.54667,-0.0267 0.69333,-0.0533 1.14666,-0.16 v -4.13334 q -0.26666,-0.13334 -0.88,-0.21334 -0.58667,-0.10666 -1.44,-0.10666 -0.56,0 -1.2,0.08 -0.61334,0.08 -1.14667,0.34666 -0.50667,0.24001 -0.85333,0.69334 -0.34667,0.42667 -0.34667,1.14667 0,1.33333 0.85333,1.86667 0.85334,0.50666 2.32001,0.50666 z m -0.21334,-12.42668 q 1.49334,0 2.50667,0.4 1.04,0.37334 1.65334,1.09334 0.64,0.69333 0.90667,1.68 0.26666,0.96 0.26666,2.13333 v 8.66668 q -0.32,0.0533 -0.90666,0.16 -0.56001,0.08 -1.28001,0.16 -0.72,0.08 -1.57333,0.13334 -0.82667,0.08 -1.65334,0.08 -1.17333,0 -2.16,-0.24 -0.98667,-0.24 -1.70667,-0.74667 -0.72,-0.53334 -1.12,-1.38667 -0.4,-0.85333 -0.4,-2.05334 0,-1.14666 0.45333,-1.97333 0.48,-0.82667 1.28,-1.33334 0.80001,-0.50666 1.86667,-0.74666 1.06667,-0.24 2.24001,-0.24 0.37333,0 0.77333,0.0533 0.4,0.0267 0.74667,0.10667 0.37333,0.0533 0.64,0.10666 0.26667,0.0533 0.37333,0.08 v -0.69333 q 0,-0.61334 -0.13333,-1.2 -0.13333,-0.61334 -0.48,-1.06667 -0.34667,-0.48 -0.96,-0.74667 -0.58667,-0.29333 -1.54667,-0.29333 -1.22667,0 -2.16,0.18666 -0.90667,0.16 -1.36001,0.34667 l -0.29333,-2.05333 q 0.48,-0.21334 1.6,-0.40001 1.12,-0.21333 2.42667,-0.21333 z"
       id="path2319" /><path
       d="m 148.7752,907.33313 q 0,0.72 -0.48,1.25334 -0.48,0.53333 -1.30667,0.53333 -0.82667,0 -1.30667,-0.53333 -0.48,-0.53334 -0.48,-1.25334 0,-0.72 0.48,-1.25333 0.48,-0.53334 1.30667,-0.53334 0.82667,0 1.30667,0.53334 0.48,0.53333 0.48,1.25333 z"
       id="path2321" /><path
       d="m 164.64439,901.83979 q 0,1.65334 -0.48,2.98667 -0.48,1.33334 -1.36,2.29334 -0.85333,0.96 -2.05333,1.49333 -1.20001,0.50667 -2.61334,0.50667 -1.41334,0 -2.61334,-0.50667 -1.2,-0.53333 -2.08,-1.49333 -0.85334,-0.96 -1.33334,-2.29334 -0.48,-1.33333 -0.48,-2.98667 0,-1.62667 0.48,-2.96 0.48,-1.36001 1.33334,-2.32001 0.88,-0.96 2.08,-1.46666 1.2,-0.53334 2.61334,-0.53334 1.41333,0 2.61334,0.53334 1.2,0.50666 2.05333,1.46666 0.88,0.96 1.36,2.32001 0.48,1.33333 0.48,2.96 z m -2.58667,0 q 0,-2.34667 -1.06666,-3.70667 -1.04001,-1.38667 -2.85334,-1.38667 -1.81334,0 -2.88001,1.38667 -1.04,1.36 -1.04,3.70667 0,2.34667 1.04,3.73334 1.06667,1.36 2.88001,1.36 1.81333,0 2.85334,-1.36 1.06666,-1.38667 1.06666,-3.73334 z"
       id="path2323" /><path
       d="m 173.25357,894.61311 q 0.32,0 0.72,0.0533 0.42667,0.0267 0.82667,0.10666 0.4,0.0533 0.72,0.13334 0.34667,0.0533 0.50667,0.10666 l -0.42667,2.16001 q -0.29333,-0.10667 -0.98667,-0.24 -0.66666,-0.16 -1.73333,-0.16 -0.69334,0 -1.38667,0.16 -0.66667,0.13333 -0.88,0.18666 v 11.65335 h -2.48001 v -13.28001 q 0.88001,-0.32 2.18667,-0.58667 1.30667,-0.29334 2.93334,-0.29334 z"
       id="path2325" /><path
       d="m 187.13941,907.38646 q -0.32,0.21334 -1.25334,0.56 -0.90666,0.32001 -2.13333,0.32001 -1.25334,0 -2.37334,-0.40001 -1.09333,-0.4 -1.92,-1.22666 -0.82667,-0.85334 -1.30667,-2.10667 -0.48,-1.25334 -0.48,-2.98667 0,-1.52001 0.45333,-2.77334 0.45334,-1.28 1.30667,-2.18667 0.88,-0.93333 2.13334,-1.44 1.25333,-0.53334 2.82667,-0.53334 1.73333,0 3.01334,0.26667 1.30666,0.24 2.18667,0.45334 v 12.37334 q 0,3.20001 -1.65334,4.64001 -1.65334,1.44 -5.01334,1.44 -1.30667,0 -2.48,-0.21333 -1.14667,-0.21334 -2.00001,-0.50667 l 0.45334,-2.16 q 0.74667,0.29333 1.81333,0.50667 1.09334,0.24 2.26667,0.24 2.21334,0 3.17334,-0.88001 0.98667,-0.88 0.98667,-2.8 z m -0.0267,-10.29334 q -0.37333,-0.10667 -1.01333,-0.18667 -0.61334,-0.10667 -1.68,-0.10667 -2.00001,0 -3.09334,1.30667 -1.06667,1.30667 -1.06667,3.46667 0,1.2 0.29333,2.05334 0.32,0.85333 0.82667,1.41333 0.53334,0.56 1.2,0.82667 0.69334,0.26667 1.41334,0.26667 0.98667,0 1.81333,-0.26667 0.82667,-0.29333 1.30667,-0.66667 z"
       id="path2327" /></g></g><metadata
   id="metadata24522"><rdf:RDF><cc:Work
       rdf:about=""><dc:title>tidyverse</dc:title></cc:Work></rdf:RDF></metadata></svg>
